<svg width="2078" height="600" viewBox="0 0 2078 600" fill="none" xmlns="http://www.w3.org/2000/svg">
<path d="M1173.78 91.075V527.875H1103.58V342.475H888.784V527.875H818.584V91.075H888.784V275.275H1103.58V91.075H1173.78ZM1416.78 91.075C1440.78 91.075 1462.78 94.275 1482.78 100.675C1502.78 106.675 1519.78 115.675 1533.78 127.675C1547.78 139.675 1558.58 154.475 1566.18 172.075C1574.18 189.275 1578.18 209.075 1578.18 231.475C1578.18 248.675 1575.58 265.875 1570.38 283.075C1565.18 300.275 1556.58 315.875 1544.58 329.875C1532.98 343.875 1517.58 355.075 1498.38 363.475C1479.18 371.875 1455.38 376.075 1426.98 376.075H1363.98V527.875H1293.78V91.075H1416.78ZM1426.38 308.875C1441.98 308.875 1454.98 306.475 1465.38 301.675C1475.78 296.475 1483.78 290.075 1489.38 282.475C1495.38 274.875 1499.58 266.875 1501.98 258.475C1504.78 249.675 1506.18 241.475 1506.18 233.875C1506.18 226.675 1504.98 218.875 1502.58 210.475C1500.18 201.675 1496.18 193.475 1490.58 185.875C1484.98 177.875 1476.98 171.275 1466.58 166.075C1456.58 160.875 1443.98 158.275 1428.78 158.275H1363.98V308.875H1426.38ZM1501.98 350.275L1613.58 527.875H1532.58L1418.58 352.075L1501.98 350.275ZM2031.41 487.675C2025.81 493.275 2017.41 498.675 2006.21 503.875C1995.41 509.075 1983.21 513.875 1969.61 518.275C1956.01 522.675 1942.01 526.075 1927.61 528.475C1913.21 531.275 1899.61 532.675 1886.81 532.675C1851.61 532.675 1819.81 527.275 1791.41 516.475C1763.41 505.675 1739.21 490.875 1718.81 472.075C1698.81 452.875 1683.41 430.275 1672.61 404.275C1662.21 378.275 1657.01 350.075 1657.01 319.675C1657.01 281.675 1663.01 248.275 1675.01 219.475C1687.01 190.275 1703.41 165.875 1724.21 146.275C1745.01 126.275 1768.81 111.275 1795.61 101.275C1822.81 91.275 1851.41 86.275 1881.41 86.275C1907.81 86.275 1932.21 89.275 1954.61 95.275C1977.41 101.275 1996.81 108.875 2012.81 118.075L1990.01 182.875C1982.41 178.475 1972.61 174.275 1960.61 170.275C1948.61 165.875 1936.41 162.475 1924.01 160.075C1912.01 157.675 1900.81 156.475 1890.41 156.475C1865.21 156.475 1842.61 160.075 1822.61 167.275C1803.01 174.075 1786.21 184.275 1772.21 197.875C1758.21 211.475 1747.41 228.075 1739.81 247.675C1732.61 266.875 1729.01 288.875 1729.01 313.675C1729.01 336.075 1732.81 356.475 1740.41 374.875C1748.41 393.275 1759.41 409.075 1773.41 422.275C1787.81 435.475 1804.61 445.675 1823.81 452.875C1843.41 459.675 1865.01 463.075 1888.61 463.075C1902.21 463.075 1915.41 461.875 1928.21 459.475C1941.01 457.075 1951.81 453.275 1960.61 448.075V375.475H1879.01V308.275H2031.41V487.675Z" fill="white"/>
<path d="M531.578 582.653C532.369 582.952 533.659 583.088 535.448 583.062C541.246 582.962 560.031 582.942 591.802 583.002C593.584 583.009 595.077 583.328 596.281 583.96C599.851 585.845 600.849 591.092 599.283 594.394C597.694 597.725 594.951 599.391 591.054 599.391C398.127 599.365 262.894 599.421 185.355 599.561C100.707 599.72 42.6907 599.867 11.3053 600C7.92074 600.013 5.62003 599.687 4.40318 599.022C-3.14727 594.872 -0.424321 583.581 8.29311 583.501C24.0988 583.368 43.9707 583.354 67.9087 583.461C68.6867 583.461 69.3284 583.288 69.8338 582.942C69.9388 582.871 70.0228 582.772 70.0768 582.657C70.1307 582.542 70.1528 582.415 70.1405 582.288C70.1283 582.162 70.0822 582.041 70.0072 581.938C69.9322 581.836 69.8309 581.755 69.7141 581.705C49.5164 572.837 31.2636 559.261 21.2396 539.361C16.4387 529.824 13.852 518.702 13.4797 505.994C13.0408 490.852 15.654 476.703 21.3194 463.55C26.6855 451.091 31.4232 440.706 36.2009 428.626C51.3549 390.382 63.2608 359.522 71.9183 336.047C81.4736 310.142 97.0134 288.645 121.101 275.488C124.851 273.44 130.061 271.119 136.731 268.525C147.134 264.475 156.16 261.144 164.449 256.575C164.726 256.422 164.937 256.171 165.038 255.871C165.14 255.572 165.125 255.247 164.997 254.959C161.068 246.001 157.646 236.216 156.669 226.829C155.811 218.576 155.961 210.087 157.118 201.363C158.541 190.623 160.406 180.777 162.713 171.826C169.147 146.878 178.073 122.03 190.013 97.581C211.098 54.4086 245.449 18.0491 290.592 1.62004C295.938 -0.321791 301.175 -0.517965 306.301 1.03151C329.392 8.03407 351.744 23.5255 368.81 40.6029C391.8 63.5957 407.689 91.965 419.967 122.12C427.82 141.399 434.067 160.328 438.709 178.908C441.934 191.836 443.749 203.484 444.154 213.851C444.46 221.732 443.486 230.031 441.232 238.749C439.935 243.747 437.611 248.774 435.427 253.942C435.231 254.402 435.212 254.918 435.374 255.392C435.536 255.865 435.868 256.262 436.305 256.505C445.032 261.333 452.772 263.997 470.277 271.318C497.716 282.81 516.866 304.925 527.309 332.416C549.419 390.658 561.501 422.262 563.555 427.23C569.46 441.544 572.053 447.589 578.367 462.183C583.324 473.644 586.695 485.684 587.044 498.233C587.291 507.177 586.692 515.447 585.249 523.041C583.504 532.248 578.487 542.583 572.761 550.134C562.149 564.126 548.414 574.5 531.558 581.256C531.418 581.313 531.298 581.41 531.214 581.536C531.13 581.662 531.086 581.81 531.089 581.961C531.091 582.113 531.139 582.26 531.226 582.383C531.313 582.507 531.436 582.601 531.578 582.653ZM368.151 302.93C370.159 302.318 372.606 301.177 375.492 299.508C389.576 291.355 401.552 280.585 411.419 267.199C423.029 251.438 428.405 233.25 427.548 212.634C426.191 180.076 398.842 155.377 371.981 141.172C348.988 129.016 324.577 123.031 298.751 123.217C270.431 123.41 244.734 130.419 221.661 144.245C198.401 158.18 175.59 180.874 172.598 209.442C168.967 244.026 187.24 272.984 214 293.164C218.941 296.888 224.271 299.774 229.989 301.822C230.06 301.849 230.138 301.851 230.209 301.826C230.28 301.802 230.341 301.752 230.381 301.687C230.42 301.622 230.437 301.544 230.427 301.467C230.418 301.39 230.383 301.318 230.328 301.264C218.625 290.311 208.624 278.128 200.326 264.715C196.622 258.723 193.484 252.638 190.91 246.46C184.537 231.118 183.489 211.826 191.838 196.904C207.587 168.774 241.26 150.719 271.96 144.574C308.905 137.172 346.787 145.063 378.165 165.632C390.414 173.652 400.877 183.946 408.277 197.013C418.102 214.34 415.199 233.911 406.911 250.909C398.213 268.738 386.763 284.642 372.56 298.62C371.177 299.984 369.628 301.257 367.912 302.441C367.863 302.481 367.829 302.536 367.815 302.598C367.802 302.659 367.809 302.724 367.837 302.78C367.865 302.837 367.911 302.883 367.968 302.91C368.025 302.937 368.09 302.944 368.151 302.93ZM300.157 583.371C382.684 583.364 435.68 583.431 459.146 583.571C463.747 583.604 466.955 583.328 468.771 582.743C476.71 580.219 480.032 573.456 480.83 565.376C491.376 458.888 497.703 395.16 499.81 374.192C500.209 370.235 500.186 366.924 499.741 364.257C498.224 355.189 490.165 348.287 480.81 348.097C475.876 347.997 472.644 347.951 471.115 347.957C447.157 348.004 390.164 348.027 300.137 348.027C210.117 348.034 153.128 348.017 129.17 347.977C127.641 347.971 124.409 348.017 119.475 348.117C110.119 348.307 102.06 355.209 100.544 364.277C100.099 366.943 100.075 370.255 100.474 374.212C102.582 395.18 108.916 458.908 119.475 565.396C120.273 573.476 123.595 580.239 131.534 582.763C133.349 583.348 136.558 583.624 141.159 583.59C164.625 583.444 217.624 583.371 300.157 583.371ZM500.429 503.859C500.417 503.951 500.431 504.044 500.469 504.128C500.507 504.212 500.568 504.284 500.644 504.336C500.721 504.388 500.81 504.417 500.902 504.421C500.995 504.425 501.086 504.403 501.167 504.358C512.644 497.834 524.836 493.731 537.742 492.049C537.937 492.022 538.122 491.945 538.277 491.825C538.433 491.705 538.555 491.547 538.631 491.365C538.706 491.184 538.733 490.985 538.708 490.79C538.684 490.595 538.609 490.41 538.49 490.253C537.606 489.056 536.462 488.185 535.059 487.639C526.83 484.388 516.617 485.674 508.278 488.996C505.339 490.167 503.281 491.616 502.104 493.345C501.817 493.758 501.635 494.238 501.576 494.742L500.429 503.859ZM99.467 503.909L98.34 494.792C98.2811 494.288 98.0995 493.808 97.8113 493.395C96.641 491.666 94.5897 490.213 91.6572 489.036C83.3288 485.704 73.1252 484.388 64.8866 487.62C63.4835 488.165 62.3398 489.033 61.4554 490.223C61.3371 490.38 61.2618 490.565 61.2372 490.76C61.2125 490.956 61.2394 491.154 61.315 491.335C61.3906 491.517 61.5124 491.675 61.6683 491.795C61.8242 491.915 62.0087 491.992 62.2035 492.019C75.0968 493.734 87.2719 497.864 98.7289 504.408C98.8095 504.453 98.9011 504.475 98.9934 504.471C99.0857 504.467 99.175 504.437 99.2516 504.386C99.3281 504.334 99.3888 504.262 99.4268 504.178C99.4648 504.094 99.4788 504.001 99.467 503.909Z" fill="white"/>
<path d="M368.152 302.928C368.09 302.942 368.026 302.935 367.969 302.908C367.912 302.881 367.865 302.835 367.838 302.778C367.81 302.722 367.802 302.657 367.816 302.596C367.829 302.534 367.863 302.479 367.912 302.439C369.628 301.255 371.177 299.982 372.56 298.618C386.763 284.64 398.214 268.736 406.911 250.907C415.2 233.909 418.102 214.338 408.278 197.011C400.877 183.944 390.414 173.65 378.166 165.63C346.787 145.061 308.905 137.17 271.961 144.572C241.26 150.717 207.587 168.772 191.838 196.902C183.49 211.824 184.537 231.116 190.911 246.458C193.484 252.636 196.622 258.721 200.326 264.713C208.625 278.126 218.625 290.309 230.328 301.262C230.383 301.316 230.418 301.388 230.428 301.465C230.437 301.542 230.421 301.62 230.381 301.685C230.341 301.75 230.281 301.8 230.209 301.824C230.138 301.849 230.06 301.847 229.989 301.82C224.271 299.772 218.941 296.886 214.001 293.162C187.24 272.982 168.967 244.024 172.598 209.44C175.59 180.872 198.401 158.178 221.661 144.243C244.735 130.417 270.431 123.408 298.751 123.215C324.578 123.029 348.988 129.014 371.982 141.17C398.842 155.375 426.191 180.074 427.548 212.632C428.406 233.248 423.03 251.436 411.42 267.197C401.552 280.583 389.576 291.353 375.493 299.506C372.607 301.175 370.16 302.316 368.152 302.928Z" fill="black"/>
<path d="M300.137 348.027C390.164 348.027 447.156 348.004 471.114 347.958C472.644 347.951 475.875 347.998 480.809 348.097C490.165 348.287 498.224 355.19 499.74 364.257C500.186 366.924 500.209 370.235 499.81 374.192C497.702 395.16 491.375 458.888 480.829 565.376C480.031 573.456 476.71 580.219 468.77 582.743C466.955 583.328 463.747 583.604 459.145 583.571C435.679 583.431 382.683 583.365 300.157 583.371C217.624 583.371 164.625 583.444 141.159 583.591C136.557 583.624 133.349 583.348 131.534 582.763C123.594 580.239 120.273 573.476 119.475 565.396C108.916 458.908 102.582 395.18 100.474 374.212C100.075 370.255 100.098 366.944 100.544 364.277C102.06 355.21 110.119 348.307 119.475 348.117C124.409 348.017 127.64 347.971 129.17 347.978C153.128 348.017 210.117 348.034 300.137 348.027ZM302.9 424.268C299.938 427.819 297.265 434.073 298.152 439.25C298.199 439.52 298.344 439.762 298.56 439.93C298.776 440.098 299.047 440.179 299.319 440.158C305.65 439.673 310.49 437.425 313.842 433.415C317.193 429.405 318.546 424.241 317.901 417.923C317.874 417.652 317.746 417.4 317.543 417.218C317.341 417.035 317.077 416.934 316.804 416.936C311.548 416.986 305.862 420.726 302.9 424.268ZM333.8 449.684C333.924 449.55 334.019 449.391 334.078 449.218C334.138 449.045 334.162 448.863 334.148 448.681C334.134 448.499 334.083 448.322 333.997 448.162C333.911 448.002 333.793 447.861 333.65 447.749C325.578 441.485 316.594 440.008 306.7 443.32C303.947 444.244 301.467 445.318 299.259 446.542C299.09 446.634 298.901 446.683 298.708 446.685C298.515 446.686 298.324 446.641 298.152 446.552C295.28 445.026 292.447 443.111 289.245 442.363C271.86 438.273 261.278 452.926 260.909 468.886C260.629 481.236 265.337 491.54 272.529 501.775C275.93 506.622 280.827 511.58 287.021 510.233C287.593 510.107 289.515 509.548 292.786 508.558C299.359 506.573 305.374 508.129 312.695 510.154C319.667 512.089 324.524 508.258 328.195 502.822C331.28 498.24 333.704 493.292 335.466 487.979C335.54 487.759 335.541 487.521 335.467 487.301C335.393 487.081 335.249 486.892 335.057 486.762C323.347 478.852 320.494 461.714 331.426 451.919C332.596 450.868 333.388 450.123 333.8 449.684Z" fill="black"/>
<path d="M313.841 433.416C310.49 437.426 305.649 439.674 299.318 440.16C299.046 440.181 298.775 440.1 298.559 439.932C298.343 439.764 298.198 439.521 298.151 439.252C297.264 434.075 299.937 427.82 302.899 424.269C305.861 420.728 311.547 416.987 316.803 416.938C317.076 416.936 317.34 417.037 317.543 417.219C317.745 417.402 317.873 417.654 317.9 417.925C318.545 424.243 317.192 429.406 313.841 433.416Z" fill="white"/>
<path d="M333.8 449.684C333.387 450.123 332.596 450.867 331.426 451.918C320.494 461.714 323.347 478.851 335.056 486.761C335.249 486.891 335.393 487.081 335.467 487.301C335.54 487.521 335.54 487.759 335.465 487.978C333.703 493.292 331.279 498.239 328.194 502.821C324.524 508.258 319.666 512.088 312.694 510.153C305.373 508.128 299.359 506.572 292.786 508.557C289.514 509.548 287.592 510.107 287.021 510.233C280.827 511.58 275.929 506.622 272.528 501.774C265.337 491.539 260.629 481.235 260.908 468.886C261.277 452.926 271.86 438.272 289.245 442.362C292.447 443.11 295.279 445.025 298.152 446.551C298.324 446.64 298.515 446.686 298.708 446.684C298.901 446.682 299.09 446.633 299.259 446.542C301.467 445.318 303.947 444.244 306.7 443.32C316.594 440.008 325.577 441.484 333.65 447.749C333.793 447.861 333.911 448.001 333.996 448.162C334.082 448.322 334.134 448.498 334.148 448.68C334.162 448.862 334.138 449.045 334.078 449.218C334.018 449.39 333.923 449.549 333.8 449.684Z" fill="white"/>
<path d="M500.43 503.858L501.577 494.74C501.636 494.236 501.818 493.756 502.105 493.344C503.282 491.615 505.34 490.165 508.28 488.995C516.618 485.673 526.831 484.386 535.06 487.638C536.463 488.183 537.607 489.054 538.491 490.251C538.61 490.408 538.685 490.594 538.709 490.789C538.734 490.984 538.707 491.182 538.632 491.364C538.556 491.545 538.434 491.704 538.278 491.824C538.123 491.943 537.938 492.02 537.743 492.047C524.837 493.729 512.645 497.833 501.168 504.356C501.087 504.401 500.996 504.423 500.903 504.419C500.811 504.415 500.722 504.386 500.645 504.334C500.569 504.283 500.508 504.211 500.47 504.126C500.432 504.042 500.418 503.949 500.43 503.858Z" fill="black"/>
<path d="M99.4673 503.908C99.479 504 99.4651 504.093 99.427 504.177C99.389 504.261 99.3283 504.333 99.2518 504.385C99.1753 504.437 99.0859 504.466 98.9936 504.47C98.9013 504.474 98.8098 504.452 98.7292 504.407C87.2722 497.863 75.097 493.734 62.2037 492.018C62.0089 491.991 61.8244 491.914 61.6685 491.794C61.5127 491.675 61.3909 491.516 61.3152 491.335C61.2396 491.153 61.2128 490.955 61.2374 490.76C61.262 490.565 61.3373 490.379 61.4557 490.222C62.34 489.032 63.4838 488.164 64.8868 487.619C73.1255 484.387 83.329 485.704 91.6575 489.035C94.5899 490.212 96.6412 491.665 97.8115 493.394C98.0997 493.807 98.2813 494.287 98.3402 494.791L99.4673 503.908Z" fill="black"/>
</svg>
