<svg width="2078" height="601" viewBox="0 0 2078 601" fill="none" xmlns="http://www.w3.org/2000/svg">
<path d="M1174.2 91.2V528H1104V342.6H889.2V528H819V91.2H889.2V275.4H1104V91.2H1174.2ZM1417.2 91.2C1441.2 91.2 1463.2 94.4 1483.2 100.8C1503.2 106.8 1520.2 115.8 1534.2 127.8C1548.2 139.8 1559 154.6 1566.6 172.2C1574.6 189.4 1578.6 209.2 1578.6 231.6C1578.6 248.8 1576 266 1570.8 283.2C1565.6 300.4 1557 316 1545 330C1533.4 344 1518 355.2 1498.8 363.6C1479.6 372 1455.8 376.2 1427.4 376.2H1364.4V528H1294.2V91.2H1417.2ZM1426.8 309C1442.4 309 1455.4 306.6 1465.8 301.8C1476.2 296.6 1484.2 290.2 1489.8 282.6C1495.8 275 1500 267 1502.4 258.6C1505.2 249.8 1506.6 241.6 1506.6 234C1506.6 226.8 1505.4 219 1503 210.6C1500.6 201.8 1496.6 193.6 1491 186C1485.4 178 1477.4 171.4 1467 166.2C1457 161 1444.4 158.4 1429.2 158.4H1364.4V309H1426.8ZM1502.4 350.4L1614 528H1533L1419 352.2L1502.4 350.4ZM2031.83 487.8C2026.23 493.4 2017.83 498.8 2006.63 504C1995.83 509.2 1983.63 514 1970.03 518.4C1956.43 522.8 1942.43 526.2 1928.03 528.6C1913.63 531.4 1900.03 532.8 1887.23 532.8C1852.03 532.8 1820.23 527.4 1791.83 516.6C1763.83 505.8 1739.63 491 1719.23 472.2C1699.23 453 1683.83 430.4 1673.03 404.4C1662.63 378.4 1657.43 350.2 1657.43 319.8C1657.43 281.8 1663.43 248.4 1675.43 219.6C1687.43 190.4 1703.83 166 1724.63 146.4C1745.43 126.4 1769.23 111.4 1796.03 101.4C1823.23 91.4 1851.83 86.4 1881.83 86.4C1908.23 86.4 1932.63 89.4 1955.03 95.4C1977.83 101.4 1997.23 109 2013.23 118.2L1990.43 183C1982.83 178.6 1973.03 174.4 1961.03 170.4C1949.03 166 1936.83 162.6 1924.43 160.2C1912.43 157.8 1901.23 156.6 1890.83 156.6C1865.63 156.6 1843.03 160.2 1823.03 167.4C1803.43 174.2 1786.63 184.4 1772.63 198C1758.63 211.6 1747.83 228.2 1740.23 247.8C1733.03 267 1729.43 289 1729.43 313.8C1729.43 336.2 1733.23 356.6 1740.83 375C1748.83 393.4 1759.83 409.2 1773.83 422.4C1788.23 435.6 1805.03 445.8 1824.23 453C1843.83 459.8 1865.43 463.2 1889.03 463.2C1902.63 463.2 1915.83 462 1928.63 459.6C1941.43 457.2 1952.23 453.4 1961.03 448.2V375.6H1879.43V308.4H2031.83V487.8Z" fill="black"/>
<path d="M531.994 582.778C532.785 583.077 534.075 583.213 535.864 583.187C541.662 583.087 560.447 583.067 592.218 583.127C594 583.134 595.493 583.453 596.697 584.085C600.267 585.97 601.265 591.217 599.699 594.519C598.11 597.85 595.367 599.516 591.47 599.516C398.543 599.49 263.31 599.546 185.771 599.686C101.123 599.845 43.1067 599.992 11.7213 600.125C8.33676 600.138 6.03605 599.812 4.8192 599.147C-2.73125 594.997 -0.00830544 583.706 8.70912 583.626C24.5149 583.493 44.3867 583.479 68.3248 583.586C69.1027 583.586 69.7444 583.413 70.2498 583.067C70.3549 582.996 70.4388 582.897 70.4928 582.782C70.5468 582.667 70.5688 582.54 70.5565 582.413C70.5443 582.287 70.4982 582.166 70.4232 582.063C70.3482 581.961 70.2469 581.88 70.1301 581.83C49.9324 572.962 31.6797 559.386 21.6556 539.486C16.8547 529.949 14.2681 518.827 13.8957 506.119C13.4568 490.977 16.0701 476.828 21.7354 463.675C27.1015 451.216 31.8392 440.831 36.6169 428.751C51.771 390.507 63.6768 359.647 72.3344 336.172C81.8896 310.267 97.4294 288.77 121.517 275.613C125.267 273.565 130.477 271.244 137.147 268.65C147.55 264.6 156.576 261.269 164.865 256.7C165.142 256.547 165.353 256.296 165.454 255.996C165.556 255.697 165.541 255.372 165.413 255.084C161.484 246.126 158.062 236.341 157.085 226.954C156.227 218.701 156.377 210.212 157.534 201.488C158.957 190.748 160.822 180.902 163.129 171.951C169.563 147.003 178.49 122.155 190.429 97.706C211.514 54.5336 245.865 18.1741 291.008 1.74504C296.354 -0.196791 301.591 -0.392965 306.717 1.15651C329.808 8.15907 352.16 23.6505 369.226 40.7279C392.216 63.7207 408.105 92.09 420.383 122.245C428.236 141.524 434.483 160.453 439.125 179.033C442.35 191.961 444.165 203.609 444.57 213.976C444.876 221.857 443.902 230.156 441.648 238.874C440.351 243.872 438.027 248.899 435.843 254.067C435.647 254.527 435.628 255.043 435.79 255.517C435.952 255.99 436.284 256.387 436.721 256.63C445.448 261.458 453.188 264.122 470.693 271.443C498.132 282.935 517.282 305.05 527.725 332.541C549.835 390.783 561.917 422.387 563.971 427.355C569.876 441.669 572.469 447.714 578.783 462.308C583.74 473.769 587.111 485.809 587.46 498.358C587.707 507.302 587.108 515.572 585.665 523.166C583.92 532.373 578.903 542.708 573.177 550.259C562.565 564.251 548.831 574.625 531.974 581.381C531.834 581.438 531.714 581.535 531.63 581.661C531.546 581.787 531.502 581.935 531.505 582.086C531.507 582.238 531.555 582.385 531.642 582.508C531.729 582.632 531.852 582.726 531.994 582.778ZM368.567 303.055C370.575 302.443 373.022 301.302 375.908 299.633C389.992 291.48 401.968 280.71 411.835 267.324C423.445 251.563 428.821 233.375 427.964 212.759C426.607 180.201 399.258 155.502 372.397 141.297C349.404 129.141 324.993 123.156 299.167 123.342C270.847 123.535 245.15 130.544 222.077 144.37C198.817 158.305 176.006 180.999 173.014 209.567C169.383 244.151 187.656 273.109 214.416 293.289C219.357 297.013 224.687 299.899 230.405 301.947C230.476 301.974 230.554 301.976 230.625 301.951C230.696 301.927 230.757 301.877 230.797 301.812C230.836 301.747 230.853 301.669 230.843 301.592C230.834 301.515 230.799 301.443 230.744 301.389C219.041 290.436 209.04 278.253 200.742 264.84C197.038 258.848 193.9 252.763 191.326 246.585C184.953 231.243 183.905 211.951 192.254 197.029C208.003 168.899 241.676 150.844 272.376 144.699C309.321 137.297 347.203 145.188 378.581 165.757C390.83 173.777 401.293 184.071 408.693 197.138C418.518 214.465 415.615 234.036 407.327 251.034C398.629 268.863 387.179 284.767 372.976 298.745C371.593 300.109 370.044 301.382 368.328 302.566C368.279 302.606 368.245 302.661 368.231 302.723C368.218 302.784 368.225 302.849 368.253 302.905C368.281 302.962 368.327 303.008 368.384 303.035C368.441 303.062 368.506 303.069 368.567 303.055ZM300.573 583.496C383.1 583.489 436.096 583.556 459.562 583.696C464.163 583.729 467.371 583.453 469.187 582.868C477.126 580.344 480.448 573.581 481.246 565.501C491.792 459.013 498.119 395.285 500.226 374.317C500.625 370.36 500.602 367.049 500.157 364.382C498.641 355.314 490.581 348.412 481.226 348.222C476.292 348.122 473.06 348.076 471.531 348.082C447.573 348.129 390.58 348.152 300.553 348.152C210.533 348.159 153.544 348.142 129.586 348.102C128.057 348.096 124.825 348.142 119.891 348.242C110.535 348.432 102.476 355.334 100.96 364.402C100.515 367.068 100.491 370.38 100.89 374.337C102.998 395.305 109.332 459.033 119.891 565.521C120.689 573.601 124.011 580.364 131.95 582.888C133.765 583.473 136.974 583.749 141.575 583.715C165.041 583.569 218.04 583.496 300.573 583.496ZM500.845 503.984C500.833 504.076 500.847 504.169 500.885 504.253C500.923 504.337 500.984 504.409 501.06 504.461C501.137 504.513 501.226 504.542 501.318 504.546C501.411 504.55 501.502 504.528 501.583 504.483C513.06 497.959 525.252 493.856 538.158 492.174C538.353 492.147 538.538 492.07 538.693 491.95C538.849 491.83 538.971 491.672 539.047 491.49C539.122 491.309 539.149 491.11 539.124 490.915C539.1 490.72 539.025 490.535 538.906 490.378C538.022 489.181 536.878 488.31 535.475 487.764C527.246 484.513 517.033 485.799 508.694 489.121C505.755 490.292 503.697 491.741 502.52 493.47C502.233 493.883 502.051 494.363 501.992 494.867L500.845 503.984ZM99.8831 504.034L98.756 494.917C98.6971 494.413 98.5155 493.933 98.2273 493.52C97.057 491.791 95.0057 490.338 92.0733 489.161C83.7448 485.829 73.5413 484.513 65.3026 487.745C63.8996 488.29 62.7558 489.158 61.8715 490.348C61.7531 490.505 61.6778 490.69 61.6532 490.885C61.6285 491.081 61.6554 491.279 61.731 491.46C61.8066 491.642 61.9285 491.8 62.0843 491.92C62.2402 492.04 62.4247 492.117 62.6195 492.144C75.5128 493.859 87.6879 497.989 99.1449 504.533C99.2256 504.578 99.3171 504.6 99.4094 504.596C99.5017 504.592 99.591 504.562 99.6676 504.511C99.7441 504.459 99.8048 504.387 99.8428 504.303C99.8809 504.219 99.8948 504.126 99.8831 504.034Z" fill="black"/>
<path d="M368.568 303.053C368.506 303.067 368.442 303.06 368.385 303.033C368.328 303.006 368.281 302.96 368.254 302.903C368.226 302.847 368.218 302.782 368.232 302.721C368.245 302.659 368.279 302.604 368.328 302.564C370.044 301.38 371.593 300.107 372.976 298.743C387.179 284.765 398.63 268.861 407.327 251.032C415.616 234.034 418.518 214.463 408.694 197.136C401.293 184.069 390.83 173.775 378.582 165.755C347.203 145.186 309.321 137.295 272.377 144.697C241.676 150.842 208.003 168.897 192.254 197.027C183.906 211.949 184.953 231.241 191.327 246.583C193.9 252.761 197.038 258.846 200.742 264.838C209.041 278.251 219.041 290.434 230.744 301.387C230.799 301.441 230.834 301.513 230.844 301.59C230.853 301.667 230.837 301.745 230.797 301.81C230.757 301.875 230.697 301.925 230.625 301.949C230.554 301.974 230.476 301.972 230.405 301.945C224.687 299.897 219.357 297.011 214.417 293.287C187.656 273.107 169.383 244.149 173.014 209.565C176.006 180.997 198.817 158.303 222.077 144.368C245.151 130.542 270.847 123.533 299.167 123.34C324.994 123.154 349.404 129.139 372.398 141.295C399.258 155.5 426.607 180.199 427.964 212.757C428.822 233.373 423.446 251.561 411.836 267.322C401.968 280.708 389.992 291.478 375.909 299.631C373.023 301.3 370.576 302.441 368.568 303.053Z" fill="white"/>
<path d="M300.553 348.152C390.58 348.152 447.572 348.129 471.53 348.083C473.06 348.076 476.291 348.123 481.225 348.222C490.581 348.412 498.64 355.315 500.156 364.382C500.602 367.049 500.625 370.36 500.226 374.317C498.118 395.285 491.791 459.013 481.245 565.501C480.447 573.581 477.126 580.344 469.186 582.868C467.371 583.453 464.163 583.729 459.561 583.696C436.095 583.556 383.099 583.49 300.573 583.496C218.04 583.496 165.041 583.569 141.575 583.716C136.973 583.749 133.765 583.473 131.95 582.888C124.01 580.364 120.689 573.601 119.891 565.521C109.332 459.033 102.998 395.305 100.89 374.337C100.491 370.38 100.514 367.069 100.96 364.402C102.476 355.335 110.535 348.432 119.891 348.242C124.825 348.142 128.056 348.096 129.586 348.103C153.544 348.142 210.533 348.159 300.553 348.152ZM303.316 424.393C300.354 427.944 297.681 434.198 298.568 439.375C298.615 439.645 298.76 439.887 298.976 440.055C299.192 440.223 299.463 440.304 299.735 440.283C306.066 439.798 310.906 437.55 314.258 433.54C317.609 429.53 318.962 424.366 318.317 418.048C318.29 417.777 318.162 417.525 317.959 417.343C317.757 417.16 317.493 417.059 317.22 417.061C311.964 417.111 306.278 420.851 303.316 424.393ZM334.216 449.809C334.34 449.675 334.435 449.516 334.495 449.343C334.554 449.17 334.578 448.988 334.564 448.806C334.55 448.624 334.499 448.447 334.413 448.287C334.327 448.127 334.209 447.986 334.066 447.874C325.994 441.61 317.011 440.133 307.116 443.445C304.363 444.369 301.883 445.443 299.675 446.667C299.506 446.759 299.317 446.808 299.124 446.81C298.931 446.811 298.74 446.766 298.568 446.677C295.696 445.151 292.863 443.236 289.661 442.488C272.276 438.398 261.694 453.051 261.325 469.011C261.045 481.361 265.753 491.665 272.945 501.9C276.346 506.747 281.243 511.705 287.437 510.358C288.009 510.232 289.931 509.673 293.202 508.683C299.775 506.698 305.79 508.254 313.111 510.279C320.083 512.214 324.94 508.383 328.611 502.947C331.696 498.365 334.12 493.417 335.882 488.104C335.956 487.884 335.957 487.646 335.883 487.426C335.809 487.206 335.665 487.017 335.473 486.887C323.763 478.977 320.91 461.839 331.842 452.044C333.012 450.993 333.804 450.248 334.216 449.809Z" fill="white"/>
<path d="M314.257 433.541C310.906 437.551 306.065 439.799 299.734 440.285C299.462 440.306 299.191 440.225 298.975 440.057C298.759 439.889 298.614 439.646 298.567 439.377C297.68 434.2 300.353 427.945 303.315 424.394C306.277 420.853 311.963 417.112 317.219 417.063C317.492 417.061 317.756 417.162 317.959 417.344C318.162 417.527 318.289 417.779 318.316 418.05C318.961 424.368 317.608 429.531 314.257 433.541Z" fill="black"/>
<path d="M334.216 449.809C333.803 450.248 333.012 450.992 331.842 452.043C320.91 461.839 323.763 478.976 335.472 486.886C335.665 487.016 335.809 487.206 335.883 487.426C335.956 487.646 335.956 487.884 335.881 488.103C334.119 493.417 331.695 498.364 328.61 502.946C324.94 508.383 320.082 512.213 313.11 510.278C305.789 508.253 299.775 506.697 293.202 508.682C289.93 509.673 288.009 510.232 287.437 510.358C281.243 511.705 276.345 506.747 272.944 501.899C265.753 491.664 261.045 481.36 261.324 469.011C261.693 453.051 272.276 438.397 289.661 442.487C292.863 443.235 295.695 445.15 298.568 446.676C298.74 446.765 298.931 446.811 299.124 446.809C299.317 446.807 299.506 446.758 299.675 446.667C301.883 445.443 304.363 444.369 307.116 443.445C317.01 440.133 325.993 441.609 334.066 447.874C334.209 447.986 334.327 448.126 334.412 448.287C334.498 448.447 334.55 448.623 334.564 448.805C334.578 448.987 334.554 449.17 334.494 449.343C334.434 449.515 334.339 449.674 334.216 449.809Z" fill="black"/>
<path d="M500.846 503.983L501.993 494.865C502.052 494.361 502.234 493.881 502.522 493.469C503.698 491.74 505.756 490.29 508.696 489.12C517.034 485.798 527.247 484.511 535.476 487.763C536.879 488.308 538.023 489.179 538.907 490.376C539.026 490.533 539.101 490.719 539.126 490.914C539.15 491.109 539.123 491.307 539.048 491.489C538.972 491.67 538.85 491.829 538.694 491.949C538.539 492.068 538.354 492.145 538.159 492.172C525.253 493.854 513.061 497.958 501.584 504.481C501.503 504.526 501.412 504.548 501.319 504.544C501.227 504.54 501.138 504.511 501.061 504.459C500.985 504.408 500.924 504.336 500.886 504.251C500.848 504.167 500.834 504.074 500.846 503.983Z" fill="white"/>
<path d="M99.8833 504.033C99.895 504.125 99.8811 504.218 99.843 504.302C99.805 504.386 99.7443 504.458 99.6678 504.51C99.5913 504.562 99.5019 504.591 99.4096 504.595C99.3173 504.599 99.2258 504.577 99.1452 504.532C87.6882 497.988 75.513 493.859 62.6198 492.143C62.4249 492.116 62.2404 492.039 62.0845 491.919C61.9287 491.8 61.8069 491.641 61.7312 491.46C61.6556 491.278 61.6288 491.08 61.6534 490.885C61.6781 490.69 61.7533 490.504 61.8717 490.347C62.7561 489.157 63.8998 488.289 65.3028 487.744C73.5415 484.512 83.745 485.829 92.0735 489.16C95.0059 490.337 97.0573 491.79 98.2276 493.519C98.5157 493.932 98.6974 494.412 98.7562 494.916L99.8833 504.033Z" fill="white"/>
</svg>
