<svg width="612" height="132" viewBox="0 0 612 132" fill="none" xmlns="http://www.w3.org/2000/svg">
<g clip-path="url(#clip0_125_14)">
<path d="M196.42 104.83C189.04 104.83 182.64 103.19 177.21 99.89C171.78 96.6 167.62 92.01 164.73 86.11C161.84 80.22 160.39 73.36 160.39 65.55C160.39 57.74 161.84 50.97 164.73 45.04C167.62 39.11 171.78 34.5 177.21 31.21C182.64 27.92 189.04 26.27 196.42 26.27C205.24 26.27 212.46 28.4 218.07 32.67C223.68 36.94 227.2 42.94 228.65 50.68H216.61C215.53 46.2 213.32 42.61 209.99 39.94C206.66 37.26 202.11 35.93 196.32 35.93C191.18 35.93 186.77 37.12 183.08 39.51C179.39 41.9 176.53 45.3 174.51 49.71C172.48 54.12 171.47 59.4 171.47 65.55C171.47 71.7 172.48 77 174.51 81.45C176.53 85.9 179.39 89.3 183.08 91.65C186.77 94 191.18 95.18 196.32 95.18C202.11 95.18 206.66 93.9 209.99 91.33C213.32 88.76 215.52 85.27 216.61 80.86H228.65C227.2 88.38 223.68 94.26 218.07 98.49C212.46 102.72 205.25 104.84 196.42 104.84V104.83Z" fill="#000102"/>
<path d="M261.33 104.83C256.12 104.83 251.46 103.64 247.33 101.25C243.21 98.8598 239.99 95.5198 237.67 91.2098C235.35 86.9098 234.2 81.9298 234.2 76.2898C234.2 70.6498 235.38 65.4598 237.73 61.1498C240.08 56.8498 243.32 53.4998 247.44 51.1098C251.56 48.7198 256.19 47.5298 261.33 47.5298C266.47 47.5298 271.17 48.7198 275.22 51.1098C279.27 53.4998 282.49 56.8298 284.88 61.0898C287.27 65.3598 288.46 70.3898 288.46 76.1698C288.46 81.9498 287.27 86.8998 284.88 91.1998C282.49 95.4998 279.25 98.8498 275.17 101.24C271.08 103.63 266.47 104.82 261.34 104.82L261.33 104.83ZM261.22 95.4998C264.11 95.4998 266.77 94.7798 269.2 93.3298C271.62 91.8798 273.59 89.7098 275.11 86.8198C276.63 83.9298 277.39 80.3798 277.39 76.1898C277.39 71.9998 276.65 68.3598 275.17 65.4998C273.69 62.6398 271.75 60.4898 269.36 59.0398C266.97 57.5898 264.33 56.8698 261.44 56.8698C258.55 56.8698 255.87 57.5898 253.41 59.0398C250.95 60.4898 248.98 62.6398 247.5 65.4998C246.02 68.3598 245.28 71.9198 245.28 76.1898C245.28 80.4598 246.02 83.9298 247.5 86.8198C248.98 89.7098 250.92 91.8798 253.3 93.3298C255.69 94.7798 258.33 95.4998 261.22 95.4998Z" fill="#000102"/>
<path d="M323.74 128.7C320.27 128.7 316.98 128.27 313.87 127.4C310.76 126.53 307.92 125.23 305.35 123.49C302.78 121.75 300.67 119.56 299 116.93C297.33 114.29 296.25 111.3 295.74 107.98H306.59C307.24 110.22 308.34 112.19 309.9 113.89C311.45 115.59 313.43 116.91 315.81 117.85C318.2 118.79 320.8 119.26 323.62 119.26C326.8 119.26 329.7 118.59 332.3 117.25C334.9 115.91 336.98 113.87 338.54 111.12C340.09 108.37 340.87 104.86 340.87 100.59V93.2101C339.71 95.1601 338.23 96.95 336.42 98.58C334.61 100.21 332.42 101.51 329.86 102.49C327.29 103.47 324.31 103.96 320.91 103.96C315.85 103.96 311.31 102.77 307.29 100.38C303.28 97.9901 300.09 94.65 297.74 90.34C295.39 86.04 294.21 81.17 294.21 75.75C294.21 70.33 295.39 65.3001 297.74 61.1001C300.09 56.9101 303.29 53.6 307.34 51.17C311.39 48.75 315.95 47.54 321.01 47.54C324.05 47.54 326.83 47.99 329.36 48.9C331.89 49.81 334.13 51.02 336.09 52.53C338.04 54.05 339.63 55.7901 340.86 57.7401L341.94 48.84H351.71V100.27C351.71 104.9 351 108.97 349.59 112.48C348.18 115.99 346.23 118.94 343.73 121.32C341.23 123.71 338.29 125.53 334.89 126.8C331.49 128.06 327.76 128.7 323.71 128.7H323.74ZM322.88 94.6301C326.42 94.6301 329.52 93.82 332.16 92.19C334.8 90.56 336.86 88.34 338.34 85.5201C339.82 82.7001 340.56 79.44 340.56 75.75C340.56 72.06 339.82 68.72 338.34 65.93C336.86 63.15 334.8 60.96 332.16 59.37C329.52 57.78 326.43 56.98 322.88 56.98C319.33 56.98 316.44 57.78 313.77 59.37C311.09 60.96 309.01 63.15 307.53 65.93C306.05 68.72 305.31 71.99 305.31 75.75C305.31 79.51 306.05 82.7001 307.53 85.5201C309.01 88.34 311.09 90.57 313.77 92.19C316.44 93.82 319.48 94.6301 322.88 94.6301Z" fill="#000102"/>
<path d="M362.02 103.53V48.84H371.79L372.44 58.17C374.18 54.84 376.62 52.24 379.76 50.36C382.91 48.48 386.58 47.54 390.77 47.54C395.18 47.54 398.94 48.41 402.05 50.14C405.16 51.87 407.57 54.5 409.27 58.01C410.97 61.52 411.82 65.91 411.82 71.19V103.53H400.97V72.28C400.97 67.22 399.85 63.37 397.61 60.72C395.37 58.08 392.11 56.76 387.84 56.76C385.02 56.76 382.49 57.4501 380.24 58.8201C378 60.2001 376.21 62.18 374.87 64.79C373.53 67.39 372.86 70.58 372.86 74.34V103.53H362.01H362.02Z" fill="#000102"/>
<path d="M426.99 38.5299C424.89 38.5299 423.17 37.8799 421.84 36.5799C420.5 35.2799 419.83 33.6099 419.83 31.5899C419.83 29.5699 420.5 28.0299 421.84 26.7599C423.18 25.4999 424.89 24.8599 426.99 24.8599C429.09 24.8599 430.71 25.4899 432.09 26.7599C433.46 28.0299 434.15 29.6399 434.15 31.5899C434.15 33.5399 433.46 35.2799 432.09 36.5799C430.71 37.8799 429.02 38.5299 426.99 38.5299ZM421.56 103.53V48.8399H432.41V103.53H421.56Z" fill="#000102"/>
<path d="M464.77 103.53C461.3 103.53 458.3 102.99 455.76 101.9C453.23 100.82 451.27 99.0101 449.9 96.4701C448.52 93.9401 447.84 90.5001 447.84 86.1601V57.9501H438.4V48.8401H447.84L449.25 35.0601H458.69V48.8401H474.1V57.9501H458.69V86.2701C458.69 89.3801 459.34 91.5001 460.64 92.6201C461.94 93.7401 464.18 94.3001 467.37 94.3001H473.66V103.52H464.76L464.77 103.53Z" fill="#000102"/>
<path d="M486.18 38.5299C484.08 38.5299 482.36 37.8799 481.03 36.5799C479.69 35.2799 479.02 33.6099 479.02 31.5899C479.02 29.5699 479.69 28.0299 481.03 26.7599C482.37 25.4999 484.08 24.8599 486.18 24.8599C488.28 24.8599 489.9 25.4899 491.28 26.7599C492.65 28.0299 493.34 29.6399 493.34 31.5899C493.34 33.5399 492.65 35.2799 491.28 36.5799C489.9 37.8799 488.21 38.5299 486.18 38.5299ZM480.75 103.53V48.8399H491.599V103.53H480.75Z" fill="#000102"/>
<path d="M527 104.83C521.79 104.83 517.13 103.64 513 101.25C508.88 98.8598 505.66 95.5198 503.34 91.2098C501.02 86.9098 499.87 81.9298 499.87 76.2898C499.87 70.6498 501.05 65.4598 503.4 61.1498C505.75 56.8498 508.99 53.4998 513.11 51.1098C517.23 48.7198 521.86 47.5298 527 47.5298C532.14 47.5298 536.84 48.7198 540.89 51.1098C544.94 53.4998 548.16 56.8298 550.55 61.0898C552.94 65.3598 554.13 70.3898 554.13 76.1698C554.13 81.9498 552.94 86.8998 550.55 91.1998C548.16 95.4998 544.92 98.8498 540.84 101.24C536.75 103.63 532.14 104.82 527.01 104.82L527 104.83ZM526.89 95.4998C529.78 95.4998 532.44 94.7798 534.87 93.3298C537.29 91.8798 539.26 89.7098 540.78 86.8198C542.3 83.9298 543.06 80.3798 543.06 76.1898C543.06 71.9998 542.32 68.3598 540.84 65.4998C539.36 62.6398 537.42 60.4898 535.03 59.0398C532.64 57.5898 530 56.8698 527.11 56.8698C524.22 56.8698 521.54 57.5898 519.08 59.0398C516.62 60.4898 514.65 62.6398 513.17 65.4998C511.69 68.3598 510.95 71.9198 510.95 76.1898C510.95 80.4598 511.69 83.9298 513.17 86.8198C514.65 89.7098 516.59 91.8798 518.97 93.3298C521.36 94.7798 524 95.4998 526.89 95.4998Z" fill="#000102"/>
<path d="M562.21 103.53V48.84H571.98L572.63 58.17C574.37 54.84 576.81 52.24 579.95 50.36C583.1 48.48 586.77 47.54 590.96 47.54C595.37 47.54 599.13 48.41 602.24 50.14C605.35 51.87 607.76 54.5 609.46 58.01C611.16 61.52 612.01 65.91 612.01 71.19V103.53H601.16V72.28C601.16 67.22 600.04 63.37 597.8 60.72C595.56 58.08 592.3 56.76 588.03 56.76C585.21 56.76 582.68 57.4501 580.43 58.8201C578.19 60.2001 576.4 62.18 575.06 64.79C573.72 67.39 573.05 70.58 573.05 74.34V103.53H562.2H562.21Z" fill="#000102"/>
<path d="M79.94 58.2098C82.72 56.6098 86.16 56.6098 88.94 58.2098L96.13 62.3598C96.36 62.4898 96.61 62.5898 96.86 62.6598C96.91 62.6798 96.96 62.6898 97.02 62.6998C97.27 62.7598 97.52 62.7898 97.77 62.7998C97.78 62.7998 97.79 62.7998 97.81 62.7998C97.84 62.7998 97.86 62.7998 97.89 62.7898C98.12 62.7898 98.35 62.7498 98.58 62.6998C98.62 62.6998 98.66 62.6898 98.7 62.6698C98.94 62.5998 99.18 62.4998 99.4 62.3798C99.42 62.3698 99.45 62.3598 99.47 62.3498L113.84 54.0498C114.87 53.4598 115.5 52.3598 115.5 51.1698V34.5698C115.5 33.3798 114.87 32.2798 113.84 31.6898L99.47 23.3898C98.44 22.7998 97.17 22.7998 96.14 23.3898L81.77 31.6898C81.77 31.6898 81.73 31.7198 81.71 31.7298C81.49 31.8598 81.28 32.0198 81.1 32.1998C81.07 32.2298 81.05 32.2598 81.02 32.2898C80.86 32.4598 80.72 32.6498 80.59 32.8498C80.57 32.8798 80.55 32.9098 80.53 32.9498C80.41 33.1698 80.31 33.3998 80.24 33.6498C80.22 33.6998 80.21 33.7498 80.2 33.8098C80.14 34.0598 80.1 34.3198 80.1 34.5898V42.8898C80.1 46.0898 78.38 49.0798 75.6 50.6798C72.82 52.2798 69.38 52.2798 66.6 50.6798L59.41 46.5298C59.18 46.3998 58.93 46.2998 58.68 46.2298C58.63 46.2098 58.58 46.1998 58.52 46.1898C58.27 46.1298 58.02 46.0998 57.77 46.0898C57.73 46.0898 57.7 46.0898 57.66 46.0898C57.42 46.0898 57.19 46.1298 56.96 46.1798C56.92 46.1798 56.88 46.1898 56.85 46.1998C56.6 46.2698 56.37 46.3698 56.14 46.4898C56.12 46.4998 56.09 46.5098 56.07 46.5198L41.7 54.8198C40.67 55.4098 40.04 56.5098 40.04 57.6998V74.2998C40.04 75.4898 40.67 76.5898 41.7 77.1798L56.07 85.4798C56.07 85.4798 56.12 85.4998 56.14 85.5098C56.37 85.6298 56.6 85.7298 56.85 85.7998C56.89 85.8098 56.93 85.8198 56.97 85.8298C57.2 85.8798 57.43 85.9098 57.66 85.9198C57.69 85.9198 57.71 85.9298 57.74 85.9298C57.75 85.9298 57.76 85.9298 57.78 85.9298C58.03 85.9298 58.28 85.8898 58.53 85.8298C58.58 85.8198 58.63 85.7998 58.69 85.7898C58.94 85.7198 59.18 85.6198 59.42 85.4898L66.61 81.3398C69.39 79.7398 72.83 79.7398 75.61 81.3398C78.38 82.9398 80.11 85.9298 80.11 89.1298V97.4298C80.11 97.6998 80.15 97.9598 80.21 98.2098C80.22 98.2598 80.23 98.3198 80.25 98.3698C80.32 98.6098 80.42 98.8498 80.54 99.0698C80.56 99.0998 80.58 99.1298 80.6 99.1698C80.72 99.3698 80.86 99.5598 81.03 99.7298C81.06 99.7598 81.08 99.7898 81.11 99.8198C81.29 99.9998 81.5 100.15 81.72 100.29C81.74 100.3 81.76 100.32 81.78 100.33L96.15 108.63C96.66 108.93 97.24 109.08 97.81 109.08C98.38 109.08 98.96 108.93 99.47 108.63L113.84 100.33C114.87 99.7398 115.5 98.6398 115.5 97.4498V80.8498C115.5 79.6598 114.87 78.5598 113.84 77.9698L99.47 69.6698C99.47 69.6698 99.42 69.6498 99.4 69.6398C99.17 69.5198 98.94 69.4198 98.69 69.3498C98.65 69.3398 98.62 69.3398 98.58 69.3298C98.35 69.2698 98.11 69.2398 97.88 69.2398C97.84 69.2398 97.81 69.2398 97.77 69.2398C97.52 69.2398 97.27 69.2798 97.02 69.3398C96.97 69.3498 96.92 69.3698 96.87 69.3798C96.62 69.4498 96.38 69.5498 96.14 69.6798L88.95 73.8298C86.18 75.4298 82.73 75.4298 79.95 73.8298C77.18 72.2298 75.45 69.2398 75.45 66.0398C75.45 62.8398 77.17 59.8498 79.95 58.2498L79.94 58.2098Z" fill="#000102"/>
<path d="M1.65023 54.0601L16.0202 62.3601C16.5302 62.6601 17.1102 62.8101 17.6802 62.8101C18.2502 62.8101 18.8302 62.6601 19.3402 62.3601L33.7102 54.0601C33.7102 54.0601 33.7502 54.0301 33.7702 54.0201C33.9902 53.8901 34.2002 53.7301 34.3802 53.5501C34.4102 53.5201 34.4302 53.4901 34.4602 53.4601C34.6202 53.2901 34.7602 53.1001 34.8902 52.9001C34.9102 52.8701 34.9302 52.8401 34.9502 52.8001C35.0702 52.5801 35.1702 52.3501 35.2402 52.1001C35.2602 52.0501 35.2702 52.0001 35.2802 51.9401C35.3402 51.6901 35.3802 51.4301 35.3802 51.1601V42.8601C35.3802 39.6601 37.1002 36.6701 39.8802 35.0701C42.6602 33.4701 46.1002 33.4701 48.8802 35.0701L56.0702 39.2201C56.3002 39.3501 56.5502 39.4501 56.8002 39.5201C56.8502 39.5401 56.9002 39.5501 56.9602 39.5601C57.2102 39.6201 57.4502 39.6501 57.7102 39.6601C57.7202 39.6601 57.7302 39.6601 57.7502 39.6601C57.7802 39.6601 57.8002 39.6501 57.8302 39.6501C58.0602 39.6501 58.2902 39.6101 58.5202 39.5601C58.5602 39.5601 58.6002 39.5501 58.6402 39.5301C58.8902 39.4601 59.1202 39.3601 59.3502 39.2401C59.3702 39.2301 59.4002 39.2201 59.4202 39.2101L73.7902 30.9101C74.8202 30.3201 75.4502 29.2201 75.4502 28.0301V11.4301C75.4502 10.2401 74.8202 9.14012 73.7902 8.55012L59.4202 0.250117C58.3902 -0.339883 57.1202 -0.339883 56.0902 0.250117L41.7202 8.55012C41.7202 8.55012 41.6802 8.58011 41.6602 8.59011C41.4402 8.72011 41.2302 8.88011 41.0502 9.06011C41.0202 9.09011 41.0002 9.12012 40.9702 9.15012C40.8102 9.32012 40.6702 9.51012 40.5402 9.71012C40.5202 9.74012 40.5002 9.77011 40.4802 9.81011C40.3602 10.0301 40.2602 10.2601 40.1902 10.5101C40.1702 10.5601 40.1602 10.6101 40.1502 10.6701C40.0902 10.9201 40.0502 11.1801 40.0502 11.4501V19.7501C40.0502 22.9501 38.3302 25.9401 35.5502 27.5401C32.7802 29.1401 29.3302 29.1401 26.5502 27.5401L19.3602 23.3901C19.1302 23.2601 18.8802 23.1601 18.6302 23.0901C18.5802 23.0701 18.5302 23.0601 18.4702 23.0501C18.2202 22.9901 17.9702 22.9601 17.7202 22.9501C17.6802 22.9501 17.6502 22.9501 17.6102 22.9501C17.3702 22.9501 17.1402 22.9901 16.9102 23.0401C16.8702 23.0401 16.8302 23.0501 16.8002 23.0601C16.5502 23.1301 16.3202 23.2301 16.0902 23.3501C16.0702 23.3601 16.0402 23.3701 16.0202 23.3801L1.65023 31.6801C0.620234 32.2701 -0.00976562 33.3701 -0.00976562 34.5601V51.1601C-0.00976562 52.3501 0.620234 53.4501 1.65023 54.0401V54.0601Z" fill="#000102"/>
<path d="M73.7802 101.06L59.4102 92.7602C59.4102 92.7602 59.3602 92.7402 59.3402 92.7302C59.1102 92.6102 58.8802 92.5102 58.6302 92.4402C58.5902 92.4302 58.5502 92.4202 58.5102 92.4102C58.2802 92.3602 58.0502 92.3202 57.8102 92.3202C57.7702 92.3202 57.7402 92.3202 57.7002 92.3202C57.4502 92.3202 57.2002 92.3602 56.9502 92.4202C56.9002 92.4302 56.8502 92.4502 56.8002 92.4602C56.5502 92.5302 56.3102 92.6302 56.0702 92.7602L48.8802 96.9102C46.1102 98.5102 42.6602 98.5102 39.8902 96.9102C37.1102 95.3102 35.3902 92.3202 35.3902 89.1202V80.8202C35.3902 80.5502 35.3502 80.2902 35.2902 80.0402C35.2802 79.9902 35.2702 79.9302 35.2502 79.8802C35.1802 79.6402 35.0802 79.4002 34.9602 79.1802C34.9402 79.1502 34.9202 79.1202 34.9002 79.0802C34.7802 78.8802 34.6402 78.6902 34.4702 78.5202C34.4402 78.4902 34.4202 78.4602 34.3902 78.4302C34.2102 78.2502 34.0002 78.1002 33.7802 77.9602C33.7602 77.9502 33.7402 77.9302 33.7202 77.9202L19.3502 69.6202C18.3202 69.0302 17.0502 69.0302 16.0202 69.6202L1.65023 77.9202C0.620234 78.5102 -0.00976562 79.6102 -0.00976562 80.8002V97.4002C-0.00976562 98.5902 0.620234 99.6902 1.65023 100.28L16.0202 108.58C16.0202 108.58 16.0702 108.6 16.0902 108.61C16.3202 108.73 16.5502 108.83 16.7902 108.9C16.8302 108.91 16.8702 108.92 16.9102 108.93C17.1402 108.98 17.3602 109.01 17.6002 109.02C17.6302 109.02 17.6602 109.03 17.6802 109.03C17.6902 109.03 17.7002 109.03 17.7202 109.03C17.9702 109.03 18.2202 108.99 18.4602 108.93C18.5102 108.92 18.5702 108.9 18.6202 108.89C18.8702 108.82 19.1102 108.72 19.3502 108.59L26.5402 104.44C29.3202 102.84 32.7602 102.84 35.5402 104.44C38.3102 106.04 40.0402 109.03 40.0402 112.23V120.53C40.0402 120.8 40.0802 121.06 40.1402 121.31C40.1502 121.36 40.1602 121.42 40.1802 121.47C40.2502 121.71 40.3502 121.95 40.4702 122.17C40.4902 122.2 40.5102 122.23 40.5302 122.27C40.6502 122.47 40.7902 122.66 40.9602 122.83C40.9902 122.86 41.0102 122.89 41.0402 122.92C41.2202 123.1 41.4302 123.25 41.6502 123.39C41.6702 123.4 41.6902 123.42 41.7102 123.43L56.0802 131.73C56.5902 132.03 57.1702 132.18 57.7402 132.18C58.3102 132.18 58.8902 132.03 59.4002 131.73L73.7702 123.43C74.8002 122.84 75.4302 121.74 75.4302 120.55V103.95C75.4302 102.76 74.8002 101.66 73.7702 101.07L73.7802 101.06Z" fill="#000102"/>
</g>
<defs>
<clipPath id="clip0_125_14">
<rect width="612" height="132" fill="white"/>
</clipPath>
</defs>
</svg>
