<svg width="278" height="100" viewBox="0 0 278 100" fill="none" xmlns="http://www.w3.org/2000/svg">
<g clip-path="url(#clip0_3225_53)">
<path d="M161.632 53.2856H115.472C115.918 66.4205 125.061 72.7615 133.981 72.7615C142.9 72.7615 147.806 68.6852 150.371 62.6839H160.851C158.064 73.2145 148.587 81.8201 133.981 81.8201C115.026 81.8201 104.545 68.0058 104.545 50.0019C104.545 30.7525 117.256 18.4102 133.646 18.4102C151.931 18.4102 162.97 34.0362 161.632 53.2856ZM133.646 27.2423C124.615 27.2423 116.476 32.2245 115.584 44.4535H150.928C150.705 35.8479 144.35 27.2423 133.646 27.2423Z" fill="white"/>
<path d="M219.201 19.4258L198.797 48.5264L221.208 80.3446H209.055L192.777 57.132L176.61 80.3446H165.014L187.09 48.9793L166.352 19.4258H178.505L193.111 40.3737L207.829 19.4258H219.201Z" fill="white"/>
<path d="M266.458 54.8708V51.0209C248.061 52.9458 236.354 55.6634 236.354 64.0426C236.354 69.8174 240.702 73.6673 247.949 73.6673C257.426 73.6673 266.458 69.2512 266.458 54.8708ZM245.719 81.82C234.458 81.82 225.092 75.479 225.092 64.269C225.092 49.8886 241.036 45.699 265.677 42.8682V41.3962C265.677 30.2994 259.545 26.5628 252.075 26.5628C243.712 26.5628 238.806 31.2053 238.36 38.6786H227.88C228.883 25.5437 240.256 18.1836 251.963 18.1836C268.465 18.1836 275.935 26.2231 275.823 43.3211L275.712 57.3619C275.6 67.5528 276.158 74.5731 277.273 80.348H267.015C266.681 78.0833 266.346 75.5922 266.235 71.9688C262.555 78.1966 256.311 81.82 245.719 81.82Z" fill="white"/>
<path fill-rule="evenodd" clip-rule="evenodd" d="M0 0H78.1818V7.46269L44.8165 50L78.1818 92.5373V100H0V0ZM39.5825 43.1172L66.6956 7.46269H12.4695L39.5825 43.1172ZM8.79612 16.3977V46.2687H31.5111L8.79612 16.3977ZM31.5111 53.7313H8.79612V83.6023L31.5111 53.7313ZM12.4695 92.5373L39.5825 56.8828L66.6956 92.5373H12.4695Z" fill="#1F40ED"/>
</g>
<defs>
<clipPath id="clip0_3225_53">
<rect width="278" height="100" fill="white"/>
</clipPath>
</defs>
</svg>
