<svg width="1111" height="171" viewBox="0 0 1111 171" fill="none" xmlns="http://www.w3.org/2000/svg">
<path d="M387.4 81.1986C387.4 92.3986 385.3 101.999 381.2 109.999C377.424 117.612 371.569 124 364.313 128.425C357.058 132.849 348.697 135.128 340.2 134.999C331.698 135.152 323.328 132.883 316.067 128.456C308.807 124.029 302.957 117.627 299.2 109.999C295 101.999 293 92.2986 293 81.1986C293 69.9986 295 60.3986 299.1 52.3986C302.874 44.7621 308.742 38.3566 316.019 33.9299C323.297 29.5032 331.683 27.238 340.2 27.3986C348.697 27.269 357.058 29.5483 364.313 33.9726C371.569 38.3968 377.424 44.7853 381.2 52.3986C385.3 60.3986 387.4 69.9986 387.4 81.1986ZM371.7 81.1986C371.7 72.6986 370.3 65.4986 367.6 59.5986C365.204 54.1624 361.278 49.5411 356.3 46.2986C351.6 43.2986 346.2 41.7986 340.2 41.7986C334.481 41.7238 328.861 43.2851 324 46.2986C319.3 49.2986 315.6 53.7986 312.8 59.5986C310.1 65.4986 308.7 72.5986 308.7 81.1986C308.7 89.6986 310.1 96.8986 312.8 102.699C315.174 108.119 319.063 112.737 324 115.999C328.8 118.999 334.2 120.599 340.2 120.599C346.2 120.599 351.6 119.099 356.3 115.999C361.1 112.999 364.8 108.599 367.6 102.699C370.3 96.8986 371.7 89.6986 371.7 81.1986ZM405.7 162.999V54.9986H420.7V67.6986H422C422.9 66.0986 424.1 64.1986 425.8 62.0986C428.033 59.3404 430.899 57.1633 434.156 55.7528C437.412 54.3424 440.961 53.7405 444.5 53.9986C450.592 53.8893 456.578 55.6012 461.691 58.9149C466.804 62.2286 470.812 66.9933 473.2 72.5986C476.1 78.5986 477.5 85.8986 477.5 94.3986C477.5 102.899 476.1 110.199 473.3 116.199C470.793 121.872 466.738 126.724 461.6 130.199C456.555 133.504 450.63 135.211 444.6 135.099C439.9 135.099 436 134.299 433 132.699C430.271 131.344 427.853 129.437 425.9 127.099C424.2 124.899 422.9 122.999 421.9 121.299H421.1V162.999H405.8M420.8 94.2986C420.8 99.7986 421.5 104.599 423.1 108.799C424.7 112.999 427.1 116.199 430.1 118.499C433.1 120.899 436.8 121.999 441.2 121.999C445.8 121.999 449.6 120.799 452.7 118.399C455.7 115.899 458.1 112.599 459.7 108.399C461.3 104.199 462.1 99.4986 462.1 94.2986C462.1 89.0986 461.3 84.3986 459.7 80.2986C458.322 76.4733 455.896 73.1123 452.7 70.5986C449.394 68.113 445.333 66.8417 441.2 66.9986C436.8 66.9986 433.1 68.0986 430 70.3986C427 72.6986 424.7 75.8986 423 79.9986C421.37 84.5856 420.59 89.4317 420.7 94.2986H420.8ZM528.4 134.999C520.6 134.999 514 133.399 508.4 129.999C502.8 126.699 498.5 121.999 495.5 115.999C492.5 109.999 491 102.799 491 94.6986C491 86.6986 492.5 79.5986 495.5 73.3986C498.308 67.5086 502.707 62.5209 508.2 58.9986C513.003 56.2227 518.349 54.5175 523.872 53.9997C529.395 53.4819 534.965 54.1638 540.2 55.9986C544.6 57.5772 548.59 60.1211 551.878 63.4435C555.166 66.766 557.668 70.7827 559.2 75.1986C561.2 80.1986 562.1 86.1986 562.1 93.3986V98.7986H499.6V87.2986H547.1C547.1 83.2986 546.3 79.6986 544.6 76.5986C542.974 73.4743 540.494 70.8759 537.449 69.1056C534.405 67.3353 530.92 66.4659 527.4 66.5986C523.1 66.5986 519.4 67.5986 516.2 69.5986C513.04 71.6864 510.464 74.5446 508.714 77.9038C506.964 81.263 506.099 85.0125 506.2 88.7986V97.7986C506.2 102.999 507.2 107.399 509 111.099C510.9 114.799 513.5 117.599 516.8 119.499C520.373 121.488 524.412 122.489 528.5 122.399C531.5 122.399 534.1 121.999 536.5 121.099C538.844 120.309 540.98 118.999 542.746 117.267C544.512 115.536 545.864 113.427 546.7 111.099L561.1 113.799C560 118.099 557.9 121.799 554.9 124.999C551.9 128.199 548.2 130.599 543.7 132.399C538.808 134.215 533.618 135.097 528.4 134.999ZM594.4 86.7986V133.499H579.1V54.9986H594V67.7986H595C596.8 63.5986 599.6 60.2986 603.5 57.7986C607.3 55.1986 612.2 53.9986 618.1 53.9986C623.5 53.9986 628.1 55.0986 632.1 57.2986C636.2 59.5986 639.3 62.8986 641.5 67.2986C643.892 72.3916 645.056 77.9743 644.9 83.5986V133.599H629.6V85.3986C629.853 80.5533 628.243 75.7948 625.1 72.0986C622.1 68.7986 618.1 67.1986 612.9 67.1986C609.621 67.1411 606.382 67.9335 603.5 69.4986C600.716 71.0819 598.456 73.4459 597 76.2986C595.318 79.5727 594.492 83.2193 594.6 86.8986L594.4 86.7986ZM666.4 133.499V28.7986H703.7C711.7 28.7986 718.5 30.1986 723.9 32.9986C729.3 35.7986 733.3 39.6986 735.9 44.5986C738.648 49.8363 740.025 55.685 739.9 61.5986C739.9 68.0986 738.6 73.6986 735.9 78.5986C733.16 83.5117 728.969 87.4583 723.9 89.8986C718.5 92.5986 711.7 93.8986 703.6 93.8986H675.4V80.2986H702.2C707.3 80.2986 711.5 79.5986 714.7 78.0986C717.9 76.6986 720.3 74.4986 721.7 71.6986C723.282 68.6068 724.072 65.1709 724 61.6986C724 57.6986 723.3 54.2986 721.8 51.3986C720.234 48.4454 717.739 46.0905 714.7 44.6986C710.69 42.9975 706.352 42.2118 702 42.3986H682.1V133.599H666.4M718.1 86.2986L743.9 133.599H725.9L700.6 86.2986H718.1ZM791.1 135.099C784.477 135.354 777.924 133.674 772.24 130.265C766.557 126.855 761.991 121.862 759.1 115.899C755.919 109.257 754.344 101.961 754.5 94.5986C754.5 86.4986 756 79.3986 759 73.2986C761.876 67.3161 766.437 62.3032 772.121 58.8749C777.805 55.4465 784.366 53.7518 791 53.9986C797.634 53.7518 804.195 55.4465 809.879 58.8749C815.563 62.3032 820.124 67.3161 823 73.2986C826.29 79.9057 827.904 87.2206 827.7 94.5986C827.857 101.961 826.281 109.257 823.1 115.899C820.209 121.862 815.643 126.855 809.96 130.265C804.276 133.674 797.723 135.354 791.1 135.099ZM791.1 122.299C795.9 122.299 799.9 120.999 803 118.499C806.1 115.999 808.4 112.599 810 108.499C811.521 103.99 812.265 99.2562 812.2 94.4986C812.2 89.4986 811.5 84.9986 810 80.6986C808.635 76.7547 806.214 73.2612 803 70.5986C799.606 67.9677 795.391 66.6217 791.1 66.7986C786.3 66.7986 782.3 67.9986 779.1 70.5986C776.1 73.1986 773.7 76.5986 772.1 80.7986C770.573 85.2364 769.828 89.9059 769.9 94.5986C769.9 99.5986 770.7 104.199 772.2 108.399C773.7 112.599 776 115.999 779.2 118.499C782.3 120.999 786.3 122.299 791.2 122.299H791.1ZM894.6 100.999V54.9986H909.9V133.599H894.9V119.899H894.1C892.137 124.444 888.837 128.284 884.64 130.91C880.443 133.535 875.546 134.822 870.6 134.599C865.908 134.695 861.278 133.52 857.2 131.199C853.27 128.837 850.136 125.354 848.2 121.199C845.834 116.133 844.671 110.588 844.8 104.999V54.9986H860.1V103.099C859.846 107.775 861.424 112.367 864.5 115.899C867.5 119.099 871.4 120.699 876.1 120.699C879.231 120.655 882.303 119.837 885.042 118.319C887.781 116.802 890.103 114.63 891.8 111.999C893.7 109.099 894.6 105.399 894.6 100.999ZM967.1 54.9986V67.2986H924.1V54.9986H967.1ZM935.7 36.1986H951V110.499C951 113.499 951.4 115.699 952.3 117.199C953.2 118.599 954.3 119.699 955.8 120.199C957.2 120.699 958.8 120.999 960.4 120.999C962.204 120.793 964.004 120.56 965.8 120.299L968.5 132.899C965.303 134.087 961.91 134.664 958.5 134.599C954.5 134.599 950.8 133.899 947.3 132.399C943.884 130.924 940.967 128.493 938.9 125.399C936.8 122.399 935.7 118.399 935.7 113.699V36.1986ZM1017.8 135.199C1010.1 135.199 1003.4 133.499 997.8 130.199C992.3 126.799 988 122.199 985 116.099C982 110.099 980.4 102.899 980.4 94.7986C980.244 87.4363 981.819 80.1402 985 73.4986C988 67.3986 992.2 62.4986 997.6 59.0986C1002.4 56.3227 1007.75 54.6175 1013.27 54.0997C1018.8 53.5819 1024.36 54.2638 1029.6 56.0986C1034 57.6772 1037.99 60.2211 1041.28 63.5435C1044.57 66.866 1047.07 70.8827 1048.6 75.2986C1050.6 80.2986 1051.6 86.2986 1051.6 93.4986V98.8986H989V87.3986H1036.4C1036.4 83.3986 1035.6 79.7986 1034 76.6986C1032.36 73.5663 1029.86 70.9642 1026.8 69.1941C1023.74 67.4241 1020.23 66.5588 1016.7 66.6986C1012.4 66.6986 1008.7 67.6986 1005.5 69.6986C1002.4 71.8374 999.871 74.7087 998.144 78.0579C996.417 81.4071 995.543 85.1308 995.6 88.8986V97.8986C995.6 103.099 996.5 107.499 998.4 111.199C1000.2 114.899 1002.8 117.699 1006.2 119.599C1009.77 121.588 1013.81 122.589 1017.9 122.499C1020.59 122.511 1023.26 122.071 1025.8 121.199C1028.12 120.4 1030.24 119.099 1032.01 117.388C1033.77 115.677 1035.13 113.598 1036 111.299L1050.4 113.899C1049.3 118.09 1047.17 121.94 1044.2 125.099C1041.07 128.38 1037.24 130.91 1033 132.499C1028.11 134.317 1022.92 135.199 1017.7 135.099L1017.8 135.199ZM1068.5 133.599V54.9986H1083.3V67.4986H1084.1C1085.6 63.2986 1088.1 59.8986 1091.7 57.4986C1095.4 54.9986 1099.5 53.7986 1104.1 53.7986C1106.27 53.8281 1108.44 53.9616 1110.6 54.1986V68.7986C1107.99 68.1283 1105.3 67.7923 1102.6 67.7986C1099.25 67.7819 1095.95 68.6071 1093 70.1986C1090.2 71.6706 1087.86 73.8871 1086.23 76.6043C1084.61 79.3214 1083.77 82.4337 1083.8 85.5986V133.599H1068.5Z" fill="white"/>
<path d="M2.19922 85.4994C8.09922 85.4994 30.7992 80.3994 42.4992 73.6994C54.2992 67.0994 54.2992 67.0994 78.5992 49.7994C109.399 27.9994 131.099 35.2994 166.799 35.2994" fill="white"/>
<path d="M2.19922 85.4994C8.09922 85.4994 30.7992 80.3994 42.4992 73.6994C54.2992 67.0994 54.2992 67.0994 78.5992 49.7994C109.399 27.9994 131.099 35.2994 166.799 35.2994" stroke="white" stroke-width="35.3"/>
<path d="M201.3 35.4992L141 70.2992V0.699219L201.3 35.4992Z" fill="white" stroke="white" stroke-width="0.4"/>
<path d="M1 85.5C6.9 85.5 29.6 90.5 41.4 97.2C53.1 103.9 53.1 103.9 77.4 121.2C108.2 143 129.9 135.7 165.6 135.7" fill="white"/>
<path d="M1 85.5C6.9 85.5 29.6 90.5 41.4 97.2C53.1 103.9 53.1 103.9 77.4 121.2C108.2 143 129.9 135.7 165.6 135.7" stroke="white" stroke-width="35.3"/>
<path d="M200.101 135.399L139.801 100.699V170.199L200.101 135.399Z" fill="white" stroke="white" stroke-width="0.4"/>
</svg>
